<?xml version="1.0" standalone="no"?>
<!DOCTYPE svg PUBLIC "-//W3C//DTD SVG 20010904//EN"
 "http://www.w3.org/TR/2001/REC-SVG-20010904/DTD/svg10.dtd">
<svg version="1.0" xmlns="http://www.w3.org/2000/svg"
 width="600.000000pt" height="600.000000pt" viewBox="0 0 600.000000 600.000000"
 preserveAspectRatio="xMidYMid meet">
<metadata>
Created by potrace 1.11, written by Peter Selinger 2001-2013
</metadata>
<g transform="translate(0.000000,600.000000) scale(0.100000,-0.100000)"
fill="#000000" stroke="none">
<path d="M3001 5937 c25 -19 49 -73 49 -112 0 -47 -31 -106 -93 -180 -28 -33
-54 -62 -57 -65 -4 -3 -32 -36 -64 -74 -68 -81 -115 -174 -120 -237 -5 -84 40
-216 103 -297 l18 -24 127 61 127 60 -34 38 c-19 21 -53 58 -76 83 -60 66 -71
122 -36 189 7 14 45 68 85 120 96 127 120 170 127 230 8 71 -30 148 -94 190
-26 17 -54 31 -62 31 -15 -1 -14 -2 0 -13z"/>
<path d="M3314 5533 c41 -65 59 -137 54 -222 -8 -142 -75 -226 -234 -295 -168
-73 -292 -135 -360 -182 -93 -63 -197 -173 -231 -242 -25 -51 -28 -67 -27
-152 l0 -95 61 -62 c37 -38 68 -81 79 -109 18 -48 18 -48 89 -30 13 4 104 18
130 21 11 1 71 3 133 4 l113 1 -12 23 c-7 12 -35 54 -63 92 -91 123 -100 143
-100 216 -1 102 22 126 255 263 160 94 251 207 278 346 38 201 -3 328 -142
434 -46 35 -52 33 -23 -11z"/>
<path d="M4972 5230 c2 -37 -19 -94 -45 -118 -41 -39 -99 -53 -262 -67 -100
-8 -154 -15 -203 -26 -148 -32 -242 -136 -278 -310 -8 -39 -13 -74 -10 -76 8
-9 230 -83 247 -83 14 0 17 16 20 114 4 97 7 119 25 142 28 38 63 62 99 69 17
2 39 7 51 9 12 2 44 7 72 11 93 12 197 41 238 67 59 38 88 103 81 184 -2 34
-12 73 -21 85 l-16 24 2 -25z"/>
<path d="M925 5060 c-16 -4 -41 -12 -55 -18 l-25 -11 26 0 c114 -3 169 -78
184 -251 5 -61 8 -87 20 -200 20 -196 149 -321 357 -347 l46 -6 42 128 c22 70
39 130 35 133 -3 3 -52 7 -110 8 -82 2 -112 6 -137 21 -63 36 -74 65 -104 268
-21 142 -57 216 -122 252 -42 24 -112 34 -157 23z"/>
<path d="M1405 5003 c-71 -12 -71 -15 -9 -32 123 -35 215 -114 255 -220 32
-85 23 -152 -49 -351 -72 -197 -93 -292 -96 -420 -4 -171 26 -267 107 -349 66
-68 194 -115 281 -106 12 1 31 3 43 4 17 1 30 15 49 52 37 74 122 185 193 252
33 32 61 60 61 62 0 4 -109 23 -180 31 -119 13 -177 40 -215 98 -36 55 -35
111 5 283 36 157 42 250 23 336 -27 116 -119 246 -220 310 -65 41 -172 62
-248 50z"/>
<path d="M4927 4754 c-4 -4 -7 -17 -7 -29 0 -40 -69 -163 -113 -201 -67 -58
-140 -87 -217 -87 -52 1 -90 10 -190 48 -256 96 -337 114 -515 111 -148 -2
-190 -15 -265 -82 -86 -78 -136 -183 -141 -299 -5 -116 -4 -119 54 -145 78
-35 177 -101 243 -163 67 -63 65 -63 79 41 30 229 52 284 131 323 52 24 120
23 231 -6 257 -66 384 -57 527 38 127 85 194 188 203 312 5 72 -6 152 -20 139z"/>
<path d="M3207 4685 c-49 -30 -93 -55 -98 -55 -19 0 -7 -16 30 -42 84 -59 88
-142 12 -237 l-19 -25 47 -87 46 -87 85 -22 c47 -13 97 -29 112 -36 l26 -14 0
98 c0 109 19 180 73 267 l31 50 -23 43 c-30 58 -192 203 -226 202 -4 0 -48
-25 -96 -55z"/>
<path d="M2050 4443 c-52 -8 -96 -16 -98 -18 -2 -2 -16 -55 -31 -119 l-28
-115 62 6 c46 4 69 1 93 -11 37 -19 50 -41 72 -120 17 -60 17 -60 66 -72 27
-6 68 -18 91 -26 42 -15 44 -15 90 15 59 37 185 100 236 118 42 15 45 25 18
78 -63 122 -282 262 -431 274 -25 2 -88 -3 -140 -10z"/>
<path d="M4139 4173 c20 -110 -29 -173 -147 -192 -34 -6 -38 -10 -50 -51 -8
-25 -21 -69 -30 -99 -12 -41 -13 -57 -4 -70 30 -41 140 -229 151 -258 44 -107
236 80 317 308 24 69 27 158 9 259 -15 77 -20 91 -39 95 -11 2 -62 13 -112 25
-50 11 -94 20 -96 20 -3 0 -2 -17 1 -37z"/>
<path d="M2880 4024 c-254 -43 -435 -133 -601 -297 -127 -126 -219 -288 -267
-467 -34 -131 -39 -324 -11 -458 58 -274 225 -516 459 -664 95 -60 241 -119
327 -134 15 -2 35 -7 43 -10 8 -3 71 -7 140 -9 177 -5 319 23 468 92 59 28
195 114 223 142 9 9 38 36 65 61 145 137 256 351 292 563 9 54 9 257 0 322
-41 287 -233 570 -488 719 -111 65 -243 116 -342 131 -46 8 -278 14 -308 9z"/>
<path d="M1440 3595 c-68 -16 -117 -43 -182 -104 -115 -105 -183 -213 -282
-440 -32 -74 -69 -152 -82 -173 -26 -40 -89 -91 -140 -113 -86 -36 -207 -26
-306 24 -53 27 -57 28 -47 8 24 -43 111 -119 167 -144 109 -49 305 -34 416 31
99 58 152 121 257 303 60 104 100 149 154 174 75 34 140 10 309 -110 54 -39
102 -71 107 -71 5 0 9 12 10 28 2 88 28 251 55 349 15 52 15 53 -12 88 -24 31
-84 75 -84 61 0 -12 -89 27 -135 59 -56 38 -125 48 -205 30z"/>
<path d="M4388 3594 c-81 -15 -100 -25 -160 -80 -26 -24 -63 -51 -82 -61 -52
-24 -52 -18 -8 -178 11 -39 23 -98 27 -130 3 -33 8 -69 10 -80 2 -11 4 -35 4
-52 1 -18 5 -33 10 -33 4 0 59 36 122 81 134 94 168 111 231 111 88 1 136 -43
233 -212 116 -203 191 -270 355 -320 43 -13 87 -18 153 -16 78 2 101 6 152 31
59 28 141 100 165 144 12 23 12 23 -32 -3 -160 -94 -375 -55 -463 84 -12 20
-49 97 -81 171 -71 164 -122 255 -186 336 -98 124 -191 192 -283 207 -78 13
-101 13 -167 0z"/>
<path d="M609 3377 c-31 -13 -71 -34 -90 -47 -32 -22 -173 -141 -194 -165 -43
-46 -129 -95 -179 -101 -29 -4 -108 25 -120 45 -16 25 -25 9 -12 -18 62 -120
178 -165 287 -112 30 14 59 29 64 33 6 4 44 34 85 66 186 145 223 146 365 15
37 -35 71 -63 75 -63 5 0 97 187 118 240 5 13 -84 70 -151 97 -90 36 -177 40
-248 10z"/>
<path d="M5166 3375 c-71 -25 -180 -90 -174 -104 22 -58 113 -241 119 -241 5
0 39 29 76 64 141 132 171 130 372 -24 151 -116 232 -138 321 -89 46 25 110
99 110 126 0 15 -2 15 -18 0 -10 -9 -34 -23 -55 -32 -77 -32 -140 -1 -321 159
-180 159 -282 193 -430 141z"/>
<path d="M1276 2910 l-58 -101 28 -41 c55 -81 156 -173 225 -207 118 -58 302
-73 393 -33 24 11 47 25 50 31 4 6 -11 64 -33 129 -22 64 -45 136 -50 158 -11
39 -16 44 -104 88 -91 46 -92 46 -117 27 -48 -35 -89 -51 -131 -51 -38 0 -48
5 -91 50 -26 28 -49 50 -51 50 -1 0 -28 -45 -61 -100z"/>
<path d="M4631 2979 c-52 -70 -126 -87 -196 -44 -82 50 -76 49 -168 20 -96
-31 -98 -34 -112 -140 -13 -94 -13 -97 20 -108 46 -15 114 -65 175 -127 l55
-57 48 13 c118 30 210 99 293 220 l37 53 -59 100 c-33 55 -62 101 -65 101 -3
0 -15 -14 -28 -31z"/>
<path d="M4124 2673 c-21 -65 -53 -140 -92 -216 l-46 -88 18 -47 c10 -26 24
-67 30 -91 12 -44 13 -45 66 -56 116 -23 155 -67 146 -162 -3 -37 -1 -53 7
-53 7 0 59 14 117 30 58 17 106 30 107 30 2 0 2 3 1 8 -1 4 2 39 7 77 19 154
2 241 -70 349 -53 80 -161 183 -221 212 -61 29 -63 29 -70 7z"/>
<path d="M1773 2465 c-125 -28 -250 -121 -298 -222 -22 -47 -28 -75 -31 -146
-6 -168 22 -285 131 -547 78 -188 85 -265 31 -369 -42 -79 -154 -162 -250
-185 -46 -11 -21 -20 61 -22 155 -4 284 76 371 229 76 133 81 262 21 469 -48
166 -55 224 -34 275 35 82 73 104 245 140 170 34 170 34 170 42 0 4 -18 25
-41 46 -51 50 -119 144 -167 232 l-37 67 -60 1 c-33 1 -83 -4 -112 -10z"/>
<path d="M3825 2185 c-55 -56 -133 -122 -173 -148 l-72 -48 5 -57 c18 -176
120 -315 269 -365 38 -13 74 -16 155 -12 167 7 256 30 481 125 80 34 169 64
200 69 159 21 309 -91 365 -273 l12 -41 8 38 c12 62 0 159 -28 220 -33 74 -94
138 -181 191 -148 92 -265 100 -489 34 -149 -43 -162 -46 -216 -44 -57 3 -108
30 -137 73 -22 33 -50 116 -58 173 -8 56 -28 144 -35 155 -3 6 -51 -35 -106
-90z"/>
<path d="M2170 2035 c-52 -18 -95 -37 -96 -41 -2 -5 -8 -34 -14 -66 -18 -93
-65 -129 -160 -122 l-57 4 33 -112 c18 -62 34 -116 34 -119 0 -3 21 -6 47 -8
26 -1 50 -4 55 -7 4 -3 43 -5 86 -5 91 0 158 21 266 85 77 45 181 142 197 183
5 14 12 41 15 59 5 32 3 33 -38 44 -51 14 -165 70 -226 111 -24 16 -44 29 -45
28 -1 0 -45 -16 -97 -34z"/>
<path d="M3500 1951 c-33 -18 -212 -84 -218 -81 -1 1 -15 -1 -30 -5 -22 -5
-35 -23 -72 -98 l-45 -92 32 -48 c18 -27 35 -63 39 -82 8 -45 -19 -100 -68
-135 -44 -32 -49 -26 75 -100 77 -45 92 -51 110 -41 50 27 170 135 197 179 67
105 93 265 60 363 -16 48 -27 99 -29 147 -1 16 -9 15 -51 -7z"/>
<path d="M2650 1861 c-144 -150 -177 -363 -78 -504 36 -52 136 -145 206 -193
77 -54 132 -82 310 -159 178 -78 234 -127 269 -240 27 -87 5 -232 -46 -304
-28 -39 -17 -39 33 -1 80 61 138 164 149 266 3 31 -6 134 -18 189 -12 59 -68
155 -119 205 -60 59 -89 79 -219 155 -116 67 -159 103 -181 149 -36 76 -13
151 88 290 50 69 86 122 86 128 0 2 -69 4 -153 4 -113 2 -171 7 -227 21 l-76
19 -24 -25z"/>
<path d="M1359 1742 c-164 -49 -261 -131 -294 -246 -18 -65 -23 -111 -30 -276
-6 -154 -15 -197 -50 -238 -25 -30 -99 -67 -115 -57 -5 3 -11 1 -15 -4 -7 -13
58 -31 111 -31 23 0 61 11 91 25 78 39 113 117 128 280 15 174 32 227 83 257
34 20 59 25 171 33 47 3 86 6 87 8 1 1 -21 59 -48 130 -48 122 -51 127 -77
125 -16 -1 -34 -4 -42 -6z"/>
<path d="M4427 1587 l-127 -51 6 -35 c23 -139 99 -256 197 -304 76 -37 122
-44 332 -52 132 -5 191 -17 233 -46 29 -21 62 -85 63 -124 0 -30 1 -29 16 10
34 90 4 204 -66 250 -42 28 -129 52 -221 60 -175 16 -206 24 -242 63 -33 34
-44 77 -47 170 -3 121 4 118 -144 59z"/>
<path d="M2789 979 c-45 -76 -76 -173 -73 -229 5 -101 47 -176 184 -330 156
-177 179 -240 120 -333 l-30 -47 38 19 c78 40 131 119 132 195 0 55 -36 122
-140 261 -89 119 -94 129 -92 192 1 27 22 75 42 93 3 3 32 33 64 67 l59 63
-127 60 c-70 33 -129 60 -131 60 -2 0 -23 -32 -46 -71z"/>
</g>
</svg>
